<svg width="108" height="26" viewBox="0 0 108 26" fill="none" xmlns="http://www.w3.org/2000/svg">
<path d="M51.706 0H45.4995C45.4995 0.113666 45.4995 3.22053 45.5037 7.24093L50.2327 10.592C50.8805 9.94786 51.524 9.30376 52.176 8.66807C52.9211 7.93977 53.9541 7.94398 54.6992 8.66807C55.7237 9.67001 56.7398 10.6804 57.7559 11.6949C58.4798 12.419 58.4883 13.4294 57.7643 14.1577C56.7483 15.1807 55.7237 16.1953 54.695 17.2014C53.9583 17.9213 52.9253 17.9297 52.1887 17.2141C51.3546 16.4016 50.5333 15.5806 49.712 14.7597L45.5164 17.3319C45.5249 21.9501 45.5334 25.7179 45.5461 25.8569H51.706C58.8863 25.8569 64.7117 20.0683 64.7117 12.9242C64.7117 5.78012 58.8863 0 51.706 0Z" fill="#F15E23"/>
<path d="M40.3054 20.2494C40.3054 25.9663 34.6958 25.9663 32.3165 25.9663C29.9372 25.9663 24.7722 25.9958 24.7722 20.9103V16.7931H21V0H29.806C29.806 0.130505 29.806 0.252591 29.806 0.378886C29.806 5.19495 29.806 10.0152 29.806 14.8313C29.806 15.7027 30.0727 16.4479 30.7755 17.0204C32.0583 18.0687 34.1581 17.4793 34.6577 15.9006C34.7635 15.5596 34.8016 15.1849 34.8016 14.8229C34.8101 10.0152 34.8059 5.20758 34.8059 0.399935C34.8059 0.27364 34.8059 0.147345 34.8059 0H43.633V16.7762H40.3011C40.3011 20.1357 40.3011 14.5324 40.3011 20.2494H40.3054Z" fill="#411F17"/>
<path d="M72.4697 10.6804C69.5316 10.6846 67.1353 8.2976 67.1226 5.35071C67.1057 2.40382 69.5146 0 72.4697 0C75.4248 0 77.8041 2.37856 77.8168 5.32966C77.8253 8.28076 75.4333 10.6762 72.4697 10.6846V10.6804Z" fill="#ED1260"/>
<path d="M72.4696 25.8652C71.7372 25.8778 71.1445 25.5747 70.6406 25.0737C69.1885 23.6298 67.7321 22.19 66.2927 20.7334C65.2428 19.6725 65.247 18.1949 66.2927 17.134C67.7406 15.6732 69.197 14.2208 70.6618 12.7726C71.7075 11.7412 73.1681 11.7285 74.2138 12.7599C75.6871 14.2081 77.152 15.669 78.6083 17.1382C79.6498 18.1864 79.6625 19.6599 78.6253 20.7166C77.1731 22.19 75.6998 23.6382 74.235 25.099C73.7481 25.5831 73.1681 25.8736 72.4653 25.8652H72.4696Z" fill="#ED1260"/>
<path d="M98.1706 16.0649C100.182 17.9594 102.18 19.8412 104.195 21.7398C103.619 22.1566 103.06 22.5607 102.502 22.9649C101.189 23.9163 99.8768 24.8719 98.5559 25.8149C98.4331 25.9034 98.2553 25.9623 98.1029 25.9623C95.4526 25.9707 92.8024 25.9707 90.1521 25.9623C89.9997 25.9623 89.8219 25.9034 89.6991 25.8107C87.5442 24.2615 85.3977 22.7039 83.2513 21.1378C83.137 21.0536 83.0396 20.9105 82.993 20.7758C82.1675 18.2667 81.3504 15.7534 80.5418 13.2359C80.4952 13.0928 80.4952 12.9076 80.5418 12.7644C81.3504 10.2385 82.1717 7.71682 82.9973 5.19933C83.0396 5.07304 83.1327 4.93832 83.2428 4.85834C85.4062 3.28806 87.5696 1.722 89.7415 0.16015C89.8431 0.0843725 89.9912 0.0380642 90.1182 0.0380642C92.7854 0.0296445 95.4569 0.0338544 98.124 0.0380642C98.2384 0.0380642 98.3696 0.0633233 98.4585 0.126471C100.359 1.49046 102.256 2.86287 104.165 4.2437C104.11 4.30264 104.064 4.35737 104.013 4.40367C102.112 6.18865 100.211 7.97362 98.3188 9.76281C98.1706 9.90173 98.0732 9.91857 97.9039 9.79227C97.2308 9.2913 96.5491 8.80296 95.8633 8.31883C95.7574 8.24726 95.6135 8.19674 95.4865 8.19674C94.572 8.18832 93.6576 8.18832 92.7431 8.19674C92.6161 8.19674 92.4679 8.24726 92.3663 8.31883C91.6212 8.84506 90.8845 9.38392 90.1479 9.92278C90.0505 9.99435 89.9658 10.108 89.9277 10.2175C89.6314 11.0847 89.3435 11.9561 89.0683 12.8318C89.0344 12.9454 89.0344 13.0886 89.0683 13.198C89.3477 14.0737 89.6314 14.9451 89.9277 15.8124C89.9658 15.9218 90.0547 16.0355 90.1521 16.107C90.8845 16.6501 91.6254 17.1848 92.3663 17.711C92.4679 17.7826 92.6161 17.8289 92.7431 17.8331C93.6576 17.8415 94.572 17.8415 95.4865 17.8331C95.6135 17.8331 95.7617 17.7826 95.8633 17.711C96.6253 17.1763 97.3747 16.6249 98.1579 16.0607L98.1706 16.0649Z" fill="#F0CE15"/>
<path d="M21 21.0196C21 20.6995 20.9842 20.3753 20.9328 20.0595C20.3281 16.6105 16.3676 14.9471 13.5296 16.9432C13.0751 17.2633 12.4625 17.7981 12.2134 18.1181C11.6838 18.7919 9.82609 19.5162 8.88933 18.4003C8.88142 18.3876 8.87352 18.375 8.86561 18.3624C8.71146 18.135 8.59684 17.9202 8.52174 17.7096C8.48221 17.5959 8.45059 17.4696 8.42292 17.3349C8.33992 16.8169 8.48617 16.3073 8.86166 15.7346C9.083 15.3935 9.29249 15.0229 9.41897 14.6397C10.0158 12.8458 9.71146 11.2035 8.49802 9.77589C8.02372 9.21581 8.06719 8.57993 8.50593 8.0788C9.87352 6.52069 10.1739 4.19194 8.90514 2.29693C7.96047 0.890419 6.44269 -0.0276062 4.79447 0.00187161C4.7668 -0.00233951 4.73913 0.00187161 4.71146 0.00187161C4.6087 0.00187161 4.50593 0.014505 4.40316 0.0271383C2.95652 0.178739 1.65217 1.03781 0.810277 2.29693C-0.458498 4.18773 -0.158103 6.51648 1.20949 8.07459C1.64822 8.57572 1.6917 9.2116 1.21739 9.77168C0.00395257 11.1992 -0.300395 12.8458 0.296443 14.6397C0.422925 15.0272 0.632411 15.3935 0.853755 15.7346C1.40316 16.5811 1.46245 17.2843 1.01581 18.0844C0.363636 18.9435 -0.0158103 19.9837 0.00395257 21.0828H0C0 21.1122 0.00395257 21.1375 0.00790514 21.167C0.00790514 21.247 0.0158103 21.3312 0.0237154 21.4112C0.0237154 21.4533 0.0316206 21.4997 0.0355731 21.5418C0.0434783 21.5965 0.0434783 21.6513 0.0513834 21.7018C0.300395 23.6979 1.74308 25.496 3.91304 25.8876C4.18972 25.9382 4.47431 25.9508 4.75889 25.955C6.93676 26.0477 15.4427 25.9719 16.332 25.9508C18.4822 25.8961 20.5099 24.3632 20.9289 21.9755C20.9842 21.6597 20.996 21.3354 20.996 21.0154L21 21.0196Z" fill="#7E2983"/>
</svg>
